<?xml version="1.0" encoding="UTF-8"?>
<svg width="192" height="192" viewBox="0 0 192 192" fill="none" xmlns="http://www.w3.org/2000/svg">
  <rect width="192" height="192" rx="48" fill="#1A1A1A"/>
  <path d="M96 40C64.9391 40 40 64.9391 40 96C40 127.061 64.9391 152 96 152C127.061 152 152 127.061 152 96C152 64.9391 127.061 40 96 40Z" fill="#3861FB"/>
  <path d="M96 56C73.9086 56 56 73.9086 56 96C56 118.091 73.9086 136 96 136C118.091 136 136 118.091 136 96C136 73.9086 118.091 56 96 56Z" fill="#121212"/>
  <path d="M96 72C82.7452 72 72 82.7452 72 96C72 109.255 82.7452 120 96 120C109.255 120 120 109.255 120 96C120 82.7452 109.255 72 96 72Z" fill="#3861FB"/>
  <path d="M70 86H50V106H70V86Z" fill="#3861FB"/>
  <path d="M142 86H122V106H142V86Z" fill="#3861FB"/>
  <circle cx="96" cy="96" r="12" fill="#121212"/>
</svg>