<?xml version="1.0" encoding="UTF-8"?>
<svg width="512" height="512" viewBox="0 0 512 512" fill="none" xmlns="http://www.w3.org/2000/svg">
  <rect width="512" height="512" rx="128" fill="#1A1A1A"/>
  <path d="M256 106.667C173.056 106.667 106.667 173.056 106.667 256C106.667 338.944 173.056 405.333 256 405.333C338.944 405.333 405.333 338.944 405.333 256C405.333 173.056 338.944 106.667 256 106.667Z" fill="#3861FB"/>
  <path d="M256 149.333C196.725 149.333 149.333 196.725 149.333 256C149.333 315.275 196.725 362.667 256 362.667C315.275 362.667 362.667 315.275 362.667 256C362.667 196.725 315.275 149.333 256 149.333Z" fill="#121212"/>
  <path d="M256 192C220.654 192 192 220.654 192 256C192 291.346 220.654 320 256 320C291.346 320 320 291.346 320 256C320 220.654 291.346 192 256 192Z" fill="#3861FB"/>
  <path d="M186.667 229.333H133.333V282.667H186.667V229.333Z" fill="#3861FB"/>
  <path d="M378.667 229.333H325.333V282.667H378.667V229.333Z" fill="#3861FB"/>
  <circle cx="256" cy="256" r="32" fill="#121212"/>
</svg>